# xmcd CD database file
#
# Track frame offsets:
#	150
#	13722
#	29195
#	50137
#	65062
#	79697
#	94460
#	110867
#	132517
#	146320
#	157035
#	173692
#	192817
#	207842
#	219262
#
# Disc length: 3139 seconds
#
# Revision: 0
# Processed by: cddbd v1.5.2PL0 Copyright (c) Steve Scherf et al.
# Submitted via: CDex 1.70beta2
#
DISCID=e30c410f
DTITLE=Drew Youngs - Tres Conmigo
DYEAR=1994
DGENRE=Jazz
TTITLE0=Montumo
TTITLE1=Cuban Sunset
TTITLE2=Seven Days
TTITLE3=Casa Samba
TTITLE4=Miles Chorus
TTITLE5=Zan-Z-Bar
TTITLE6=Final Call
TTITLE7=Seven More Lives For The Cat
TTITLE8=Double Expresso
TTITLE9=Stealth
TTITLE10=White Sand
TTITLE11=Sacred Dancer (Elisabeth)
TTITLE12=Quatro
TTITLE13=The Quad
TTITLE14=Final Call (Instrumental)
EXTD=YEAR: 1994
EXTT0=
EXTT1=
EXTT2=
EXTT3=
EXTT4=
EXTT5=
EXTT6=
EXTT7=
EXTT8=
EXTT9=
EXTT10=
EXTT11=
EXTT12=
EXTT13=
EXTT14=
PLAYORDER=
